<svg id="Layer_1" data-name="Layer 1" xmlns="http://www.w3.org/2000/svg" viewBox="0 0 135.51 53.64"><defs><style>.cls-1{font-size:17.79px;font-family:Harmony, Harmony;}.cls-1,.cls-6{fill:#fff;}.cls-2{letter-spacing:0.06em;}.cls-3{letter-spacing:0em;}.cls-4{letter-spacing:0.1em;}.cls-5{letter-spacing:0.06em;}.cls-6{font-size:29.6px;font-family:Insaniburger, Insaniburger;letter-spacing:0.02em;}.cls-7{letter-spacing:-0.03em;}.cls-8{fill:#f1dfaa;}.cls-10,.cls-8,.cls-9{fill-rule:evenodd;}.cls-9{fill:#090607;}.cls-10{fill:#ed212a;}</style></defs><title>logo-pencils</title><text class="cls-1" transform="translate(43.92 52.24) scale(1.6 1)"><tspan class="cls-2">Let</tspan><tspan class="cls-3" x="12.86" y="0">s</tspan><tspan class="cls-4" x="14.41" y="0"> </tspan><tspan class="cls-5" x="19.21" y="0">Connecte</tspan><tspan x="48.29" y="0">d</tspan></text><text class="cls-6" transform="translate(40.01 35.6)">DIGIBI<tspan class="cls-7" x="78.84" y="0">T</tspan></text><polygon class="cls-8" points="24.29 41.73 27.71 40.41 31.14 39.09 32.51 41.9 33.05 52.23 25.5 44.34 24.29 41.73"/><path class="cls-9" d="M38.09,53.3a24.14,24.14,0,0,1-2.31-2.45s1,.45,1.32.11a4,4,0,0,1,.85-.6A23.46,23.46,0,0,1,38.09,53.3Z" transform="translate(-5 -1)"/><path class="cls-8" d="M34.34,1c-9.25.22-32.26,9.41-29,13.71l3.15,4.13C5.51,14.11,26.85,1.85,34.34,1Z" transform="translate(-5 -1)"/><path class="cls-8" d="M27.71,8.12h0C20.86,9.53,8.26,18.49,11,22.14l3.15,4.13c-2.55-4.05,10.05-12,14.9-13h0c.54-.09,1.26-.21,1.4.14L29.29,8.35C29.17,8.12,29,7.92,27.71,8.12Z" transform="translate(-5 -1)"/><path class="cls-8" d="M30.09,17.42h0c-5.35,1.39-15.94,8.85-13.43,12.18l3.15,4.13c-2.31-3.59,7.94-10.16,11.63-11.16h0c.43-.1,1-.24,1.1,0l-1.17-5.06C31.28,17.33,31.11,17.2,30.09,17.42Z" transform="translate(-5 -1)"/><path class="cls-8" d="M33.47,26.5a4.82,4.82,0,0,0-1.89,0c-4.08,1-9.44,6.66-7.24,9.57L28.1,41c-2.3-3.41,6-8.89,6.09-8.94v0c.41-.26.46-.3.48-.34Z" transform="translate(-5 -1)"/><path class="cls-10" d="M8.46,18.84,5.31,14.71c4.5,4.87,23.87-4.23,23.94-6.38,0,0,0-.05,0-.07l1.17,5.06c-.06,3-18.24,9.43-21.85,5.66Z" transform="translate(-5 -1)"/><path class="cls-10" d="M14.13,26.28,11,22.15c3.88,4.24,20.24-2.9,20.38-4.72v-.05l1.17,5.06C31.84,24.58,17,29.86,14.13,26.28Z" transform="translate(-5 -1)"/><path class="cls-10" d="M19.81,33.73,16.66,29.6c3.17,3.51,16.48-1.92,16.81-3.1l1.17,5.06C33.89,32.76,22.23,36.78,19.81,33.73Z" transform="translate(-5 -1)"/><path class="cls-10" d="M34.84,36.88c-.11-.11-.67-.13-.67-.13-5,1.16-8.3.81-10.12-1.18l.16.31c.28.48,2.87,3.72,3.93,5.23l2.36,4.23a16.16,16.16,0,0,1,1.44-1.17s2.23.18,2.23.18l1.27-1.47,2.06,0-2.25-5.1Z" transform="translate(-5 -1)"/></svg>